<svg width="3024" height="735" viewBox="0 0 3024 735" fill="none" xmlns="http://www.w3.org/2000/svg">
<path d="M0 541.579V212.918H128.546C154.534 212.918 177.891 216.477 198.62 223.595C219.657 230.403 237.446 240.616 251.987 254.233C266.528 267.849 277.665 284.871 285.4 305.296C293.444 325.721 297.465 349.396 297.465 376.32C297.465 431.406 282.615 472.721 252.915 500.264C223.524 527.807 182.377 541.579 129.474 541.579H0ZM130.402 464.056C145.871 464.056 158.865 462.044 169.384 458.021C179.902 453.688 188.256 447.808 194.443 440.381C200.94 432.644 205.581 423.515 208.365 412.993C211.149 402.161 212.542 390.401 212.542 377.713C212.542 365.334 211.149 353.883 208.365 343.361C205.89 332.839 201.404 323.709 194.907 315.973C188.41 308.236 179.593 302.201 168.455 297.868C157.627 293.226 143.86 290.905 127.154 290.905H83.9957V464.056H130.402Z" fill="white"/>
<path d="M450.748 545.293C432.804 545.293 416.098 542.662 400.629 537.401C385.47 531.831 372.167 523.629 360.72 512.798C349.273 501.966 340.146 488.659 333.34 472.876C326.843 457.093 323.594 438.834 323.594 418.099C323.594 398.293 326.998 380.498 333.804 364.715C340.61 348.932 349.737 335.624 361.184 324.793C372.631 313.961 385.934 305.76 401.093 300.189C416.562 294.619 433.114 291.834 450.748 291.834C468.692 291.834 485.244 294.774 500.403 300.654C515.872 306.224 529.175 314.425 540.313 325.257C551.76 336.088 560.731 349.396 567.228 365.179C574.035 380.962 577.438 398.602 577.438 418.099C577.438 438.834 574.189 457.247 567.693 473.34C561.505 489.123 552.688 502.431 541.241 513.262C530.103 523.784 516.8 531.831 501.331 537.401C486.172 542.662 469.311 545.293 450.748 545.293ZM450.748 368.428C441.776 368.428 434.197 370.131 428.009 373.535C422.131 376.939 417.336 381.117 413.623 386.068C410.22 390.711 407.745 395.972 406.198 401.852C404.651 407.732 403.878 413.302 403.878 418.563C403.878 425.062 404.651 431.406 406.198 437.596C407.745 443.476 410.375 448.737 414.087 453.379C417.8 458.021 422.595 461.889 428.473 464.984C434.351 467.769 441.776 469.162 450.748 469.162C459.411 469.162 466.681 467.769 472.559 464.984C478.747 461.889 483.542 458.021 486.945 453.379C490.658 448.427 493.287 443.012 494.834 437.132C496.381 430.942 497.155 424.753 497.155 418.563C497.155 413.612 496.381 408.196 494.834 402.316C493.287 396.436 490.812 391.02 487.409 386.068C484.006 381.117 479.211 376.939 473.023 373.535C466.836 370.131 459.411 368.428 450.748 368.428Z" fill="white"/>
<path d="M691.406 322.936C696.665 315.818 702.388 310.247 708.576 306.224C714.763 302.201 720.796 299.106 726.674 296.94C732.862 294.774 738.586 293.536 743.845 293.226C749.414 292.607 754.518 292.298 759.159 292.298C770.297 292.298 781.434 294.619 792.572 299.261C804.019 303.594 813.609 312.259 821.344 325.257C826.603 318.448 832.172 312.878 838.05 308.545C843.928 304.213 850.116 300.808 856.613 298.333C863.11 295.857 869.452 294.309 875.639 293.691C882.136 292.762 888.478 292.298 894.666 292.298C908.588 292.298 920.654 294.619 930.863 299.261C941.382 303.903 949.89 310.557 956.387 319.222C962.883 327.578 967.679 337.791 970.773 349.86C973.866 361.62 975.413 374.927 975.413 389.782V541.579H893.274V405.101C893.274 401.387 892.964 397.364 892.346 393.032C892.036 388.699 890.953 384.676 889.097 380.962C887.55 376.939 884.921 373.689 881.208 371.214C877.496 368.428 872.391 367.036 865.894 367.036C858.778 367.655 853.055 369.512 848.724 372.606C844.702 375.701 841.608 379.415 839.442 383.747C837.586 388.08 836.348 392.567 835.73 397.209C835.42 401.852 835.266 406.029 835.266 409.743V541.579H753.126V404.637C753.126 401.542 752.817 397.828 752.198 393.496C751.889 389.163 750.806 384.985 748.95 380.962C747.093 376.939 744.309 373.689 740.596 371.214C737.193 368.428 732.398 367.036 726.21 367.036C718.476 367.036 712.288 368.583 707.648 371.678C703.317 374.773 700.068 378.796 697.903 383.747C696.046 388.389 694.809 393.341 694.19 398.602C693.881 403.554 693.726 408.041 693.726 412.064V541.579H611.586V296.94H683.981L691.406 322.936Z" fill="white"/>
<path d="M1165.69 509.548C1159.5 518.833 1152.7 525.951 1145.27 530.902C1138.16 535.544 1130.89 538.948 1123.46 541.115C1116.34 543.281 1109.69 544.519 1103.51 544.828C1097.32 545.138 1092.68 545.293 1089.58 545.293C1079.37 545.293 1069.32 543.745 1059.42 540.651C1049.83 537.556 1041.32 532.759 1033.9 526.26C1026.47 519.761 1020.44 511.715 1015.8 502.121C1011.16 492.218 1008.84 480.303 1008.84 466.377C1008.84 452.141 1012.39 439.762 1019.51 429.24C1026.94 418.718 1035.75 410.826 1045.96 405.565C1053.39 401.852 1061.28 399.066 1069.63 397.209C1078.29 395.043 1086.95 393.651 1095.62 393.032C1104.59 392.413 1113.87 392.103 1123.46 392.103H1163.37C1163.06 383.438 1159.81 376.165 1153.62 370.285C1147.75 364.096 1139.39 361.001 1128.57 361.001C1120.52 361.001 1113.1 362.703 1106.29 366.107C1099.79 369.512 1096.08 373.844 1095.15 379.105H1013.48C1015.33 363.941 1019.82 350.943 1026.94 340.112C1034.05 328.971 1042.87 319.996 1053.39 313.187C1063.91 306.069 1075.51 300.808 1088.19 297.404C1100.88 294 1114.02 292.298 1127.64 292.298C1144.03 292.298 1158.27 294 1170.33 297.404C1182.71 300.808 1193.38 305.915 1202.35 312.723C1228.34 331.601 1241.33 364.096 1241.33 410.207V541.579H1165.69V509.548ZM1118.36 442.702C1110.62 442.702 1103.97 444.249 1098.4 447.344C1092.83 450.439 1090.05 455.545 1090.05 462.663C1090.05 469.162 1092.52 474.114 1097.47 477.518C1102.73 480.922 1109.07 482.624 1116.5 482.624C1123 482.624 1129.03 481.541 1134.6 479.375C1140.48 477.208 1145.43 474.268 1149.45 470.555C1153.78 466.532 1157.18 462.199 1159.66 457.557C1162.44 452.915 1163.99 447.963 1164.3 442.702H1118.36Z" fill="white"/>
<path d="M1330.51 180.887C1337.32 180.887 1343.66 181.971 1349.54 184.137C1355.42 186.303 1360.52 189.553 1364.85 193.885C1369.49 198.218 1373.21 203.324 1375.99 209.204C1378.78 215.084 1380.17 221.893 1380.17 229.629C1380.17 245.722 1375.22 257.946 1365.32 266.302C1355.42 274.348 1343.82 278.372 1330.51 278.372C1324.02 278.372 1317.83 277.443 1311.95 275.586C1306.07 273.42 1300.81 270.325 1296.17 266.302C1291.53 262.279 1287.82 257.327 1285.03 251.447C1282.25 245.258 1280.86 237.985 1280.86 229.629C1280.86 221.893 1282.25 215.084 1285.03 209.204C1288.13 203.324 1292 198.218 1296.64 193.885C1301.28 189.553 1306.54 186.303 1312.41 184.137C1318.29 181.971 1324.33 180.887 1330.51 180.887ZM1371.81 541.579H1290.14V296.94H1371.81V541.579Z" fill="white"/>
<path d="M1500.36 319.222C1505.93 313.342 1511.96 308.545 1518.46 304.832C1524.95 301.118 1531.3 298.333 1537.48 296.476C1543.98 294.619 1550.17 293.381 1556.05 292.762C1561.92 292.143 1566.87 291.834 1570.9 291.834C1585.75 291.834 1598.74 294.309 1609.88 299.261C1621.01 303.903 1630.6 310.712 1638.65 319.686C1647.62 330.208 1653.81 343.052 1657.21 358.216C1660.92 373.071 1662.78 389.163 1662.78 406.494V541.579H1580.64V413.457C1580.64 408.505 1580.02 403.399 1578.78 398.138C1577.86 392.567 1576 387.461 1573.22 382.819C1570.43 378.177 1566.56 374.463 1561.61 371.678C1556.66 368.583 1550.32 367.036 1542.59 367.036C1535.78 367.036 1529.44 368.738 1523.56 372.142C1517.68 375.237 1513.2 379.26 1510.1 384.212C1507.32 388.854 1505.31 393.96 1504.07 399.531C1502.83 405.101 1502.21 410.362 1502.21 415.314V541.579H1420.07V296.476H1495.72L1500.36 319.222Z" fill="white"/>
<path d="M1786.49 116.053C1786.49 51.9585 1838.44 0 1902.51 0H2907.98C2972.06 0 3024 51.9585 3024 116.053V541.579C3024 605.673 2972.06 657.632 2907.98 657.632H1902.51C1838.44 657.632 1786.49 605.673 1786.49 541.579V116.053Z" fill="#4370E2"/>
<path d="M1786.49 193.421C1786.49 129.327 1838.44 77.3684 1902.51 77.3684H2907.98C2972.06 77.3684 3024 129.327 3024 193.421V618.947C3024 683.041 2972.06 735 2907.98 735H1902.51C1838.44 735 1786.49 683.041 1786.49 618.947V193.421Z" fill="#4370E2"/>
<path d="M1786.49 154.737C1786.49 90.6427 1838.44 38.6842 1902.51 38.6842H2907.98C2972.06 38.6842 3024 90.6428 3024 154.737V580.263C3024 644.357 2972.06 696.316 2907.98 696.316H1902.51C1838.44 696.316 1786.49 644.357 1786.49 580.263V154.737Z" fill="#5081FF"/>
<path d="M1933.14 541.579V212.918H2096.49C2110.41 212.918 2123.41 214.465 2135.47 217.56C2147.54 220.345 2158.06 225.142 2167.03 231.951C2176 238.759 2182.96 247.734 2187.91 258.875C2193.17 270.016 2195.8 283.942 2195.8 300.654C2195.8 312.414 2193.01 323.864 2187.45 335.005C2182.19 345.837 2174.76 354.347 2165.17 360.537C2178.16 366.726 2188.84 376.165 2197.19 388.854C2205.54 401.233 2209.72 417.325 2209.72 437.132C2209.72 455.081 2206.47 470.4 2199.98 483.088C2193.48 495.777 2185.44 506.144 2175.84 514.191C2161.92 525.641 2145.68 533.068 2127.12 536.473C2108.86 539.877 2089.68 541.579 2069.57 541.579H1933.14ZM2076.07 340.576C2089.06 340.576 2098.35 337.945 2103.91 332.684C2109.79 327.114 2112.58 320.615 2112.27 313.187C2111.96 304.213 2108.71 298.178 2102.52 295.083C2096.33 291.988 2087.83 290.441 2077 290.441H2017.13V340.576H2076.07ZM2017.13 464.056H2083.96C2098.81 464.056 2109.48 461.425 2115.98 456.164C2122.48 450.903 2125.73 443.94 2125.73 435.275C2125.73 417.325 2112.89 408.351 2087.21 408.351H2017.13V464.056Z" fill="white"/>
<path d="M2405.28 208.74C2430.03 208.74 2452.62 212.763 2473.03 220.809C2493.76 228.546 2511.4 239.687 2525.94 254.233C2540.79 268.468 2552.23 285.954 2560.28 306.688C2568.63 327.114 2572.81 350.015 2572.81 375.392C2572.81 400.459 2568.79 423.515 2560.74 444.559C2552.7 465.294 2541.25 483.243 2526.4 498.407C2511.55 513.262 2493.76 524.867 2473.03 533.223C2452.62 541.27 2429.88 545.293 2404.82 545.293C2379.14 545.293 2355.94 541.27 2335.21 533.223C2314.48 525.177 2296.69 513.881 2281.84 499.336C2267.3 484.481 2256.01 466.686 2247.96 445.952C2240.23 425.217 2236.36 402.161 2236.36 376.784C2236.36 351.407 2240.38 328.352 2248.43 307.617C2256.78 286.882 2268.38 269.242 2283.23 254.697C2298.08 240.152 2315.87 228.856 2336.6 220.809C2357.33 212.763 2380.22 208.74 2405.28 208.74ZM2322.21 376.32C2322.21 387.461 2323.76 398.447 2326.85 409.279C2330.26 419.801 2335.36 429.395 2342.17 438.06C2348.97 446.416 2357.64 453.224 2368.16 458.485C2378.98 463.437 2391.98 465.913 2407.14 465.913C2421.37 465.913 2433.43 463.282 2443.33 458.021C2453.54 452.451 2461.9 445.487 2468.39 437.132C2474.89 428.466 2479.53 419.027 2482.32 408.815C2485.41 398.293 2486.96 387.925 2486.96 377.713C2486.96 368.119 2485.56 358.061 2482.78 347.539C2480 336.707 2475.35 326.959 2468.86 318.294C2462.36 309.628 2453.85 302.511 2443.33 296.94C2433.12 291.06 2420.59 288.12 2405.74 288.12C2390.89 288.12 2378.06 290.751 2367.23 296.012C2356.71 301.273 2348.05 308.081 2341.24 316.437C2334.74 324.793 2329.95 334.232 2326.85 344.754C2323.76 355.276 2322.21 365.798 2322.21 376.32Z" fill="white"/>
<path d="M2799.37 212.918H2897.75L2785.91 377.248L2901 541.579H2799.83L2732.54 437.132L2662.47 541.579H2567.34L2683.35 376.784L2571.05 212.918H2671.75L2736.26 317.365L2799.37 212.918Z" fill="white"/>
</svg>
