<svg width="1115" height="255" viewBox="0 0 1115 255" fill="none" xmlns="http://www.w3.org/2000/svg">
<path d="M0.900391 42V252H76.5004V220.8H36.9004V42H0.900391Z" fill="#EFEFEF"/>
<path d="M122.775 42V252H158.775V42H122.775Z" fill="#EFEFEF"/>
<path d="M281.187 42L289.587 191.4H287.487L249.987 42H209.487V252H245.487L237.987 103.2H240.087L276.687 252H317.187V42H281.187Z" fill="#EFEFEF"/>
<path d="M404.876 42H368.876V251.7H404.876V162.6H409.376L437.876 251.7H476.276L438.776 147L472.376 42H434.276L409.376 131.4H404.876V42Z" fill="#EFEFEF"/>
<path d="M597.699 73.2V42H521.799V252H557.799V162.6H595.599V131.4H557.799V73.2H597.699Z" fill="#EFEFEF"/>
<path d="M645.139 42V252H720.739V220.8H681.139V42H645.139Z" fill="#EFEFEF"/>
<path d="M764.07 93.3V200.4C764.07 237.9 785.67 255 817.17 255C848.97 255 871.17 237.3 871.17 200.4V93.3C871.17 56.7 848.97 39 817.17 39C785.67 39 764.07 56.1 764.07 93.3ZM800.07 90.9C800.07 75.3 808.77 70.2 817.47 70.2C826.47 70.2 835.17 75.3 835.17 90.9V203.1C835.17 218.4 826.47 223.8 817.47 223.8C808.77 223.8 800.07 218.4 800.07 203.1V90.9Z" fill="#EFEFEF"/>
<path d="M913.672 42L935.271 252H976.071L988.372 134.7H990.771L1002.77 252H1043.87L1066.37 42H1030.37L1018.97 191.4H1016.57L1001.87 42H977.871L963.172 191.4H960.771L949.672 42H913.672Z" fill="#EFEFEF"/>
<path d="M1086.2 16.25V20.4C1086.2 31 1090.75 36.5 1100.25 36.5C1109.9 36.5 1114.7 30.85 1114.7 20.5V16.25C1114.7 6.3 1109.65 0.5 1100.3 0.5C1091.15 0.5 1086.2 6.1 1086.2 16.25ZM1088.5 16.05C1088.5 7.25 1092.75 2.5 1100.4 2.5C1108.15 2.5 1112.4 7.3 1112.4 16.05V20.65C1112.4 29.85 1108.3 34.5 1100.3 34.5C1092.4 34.5 1088.5 30 1088.5 20.65V16.05ZM1095.85 8.1V29.1H1097.9V20.2H1100.65C1102.8 20.2 1103.75 21.4 1103.75 23.7V24.8C1103.75 26.45 1103.75 27.95 1104.05 29.1H1106.15C1105.9 28.15 1105.85 27.05 1105.85 24.8V24.35C1105.85 21.6 1104.55 19.8 1102.7 19.35V19.15C1104.55 18.65 1105.85 16.85 1105.85 13.9V13.75C1105.85 10.15 1103.9 8.1 1100.7 8.1H1095.85ZM1097.9 9.95H1100.65C1102.8 9.95 1103.75 11.1 1103.75 13.6V14.55C1103.75 17 1102.8 18.35 1100.65 18.35H1097.9V9.95Z" fill="white"/>
</svg>
