<svg width="895" height="226" viewBox="0 0 895 226" fill="none" xmlns="http://www.w3.org/2000/svg">
<path d="M64.4346 116.241C69.446 115.638 86.7134 115.15 102.471 115.415C127.54 115.837 139.06 114.794 142.779 112.314C143.924 111.672 156.339 104.435 157.596 90.1612C158.124 83.2772 156.084 76.441 151.87 70.9718C148.842 67.2958 144.946 64.4319 140.534 62.6395C137.073 61.2383 133.344 60.6206 129.616 60.8312C121.781 60.6414 116.658 60.4705 110.468 60.4163C109.516 60.4163 106.602 60.4163 101.428 60.4163C95.7295 60.4163 91.0285 60.4497 87.7861 60.4678C81.2882 60.6386 74.8627 61.878 68.7679 64.1373C72.1433 59.079 76.3551 54.6328 81.2228 50.9878C87.7629 45.8914 95.7586 43.0145 104.047 42.7762C113.158 42.1653 122.295 42.0287 131.421 42.3686C140.944 43.1551 147.193 44.1764 154.51 48.154C158.975 50.6387 162.976 53.8784 166.335 57.7281C172.444 64.6319 176.385 73.1824 177.666 82.3115C178.466 88.3655 178.056 94.5177 176.46 100.412C174.122 109.124 169.226 116.934 162.405 122.837C153.139 130.711 145.611 133.535 129.745 133.987C122.619 134.156 120.331 134.091 91.3991 134.091C67.9393 134.131 56.8739 134.155 50.3678 137.915C41.8458 142.842 33.3961 153.401 33.2092 153.212C32.2208 152.232 43.2499 118.483 64.4346 116.241Z" fill="white"/>
<path d="M139.892 87.7886C139.749 85.2425 138.673 82.8383 136.87 81.0351C135.067 79.2319 132.662 78.1557 130.116 78.013C129.899 78.013 129.682 78.0139 129.468 78.038C129.255 78.0621 129.034 78.013 128.814 78.013H74.5448C72.7001 77.9651 70.8725 78.3806 69.2289 79.2195C68.1115 79.7566 67.0715 80.4411 66.1371 81.2558C64.1274 83.1375 62.2911 85.1959 60.6498 87.4061C59.1431 89.3798 58.0009 91.1822 57.4013 92.1586C54.6176 96.7007 52.1904 101.451 50.1416 106.369C53.8148 103.001 58.2368 100.554 63.0423 99.2328C66.9186 98.3019 70.887 97.8083 74.8733 97.76H128.814C129.553 97.7848 130.292 97.7528 131.026 97.6658C133.436 97.3392 135.651 96.1664 137.275 94.3568C138.899 92.5472 139.827 90.2193 139.892 87.7886Z" fill="white"/>
<path d="M367.662 153.242H352.142V52.47L351.956 45.6664L341.004 45.5723C341.068 44.6683 341.197 42.8885 341.197 42.8885L367.662 42.1911V153.242Z" fill="white"/>
<path d="M373.038 76.8695C373.012 78.2275 372.985 79.5857 372.959 80.9437L383.663 80.6215C383.699 81.5014 383.736 82.3841 383.769 83.264V153.233H399.49L399.616 74.4977L373.038 76.8695Z" fill="white"/>
<path d="M388.88 63.6527C394.806 63.6527 399.611 58.8485 399.611 52.9222C399.611 46.9959 394.806 42.1918 388.88 42.1918C382.953 42.1918 378.149 46.9959 378.149 52.9222C378.149 58.8485 382.953 63.6527 388.88 63.6527Z" fill="white"/>
<path d="M341.972 113.127C341.972 136.448 325.926 153.241 302.601 153.241C281.145 153.241 264.354 138.129 264.354 114.809C264.205 109.524 265.128 104.264 267.065 99.3438C269.002 94.424 271.915 89.9461 275.628 86.1811C279.341 82.416 283.776 79.4418 288.668 77.4353C293.561 75.4289 298.808 74.4318 304.096 74.5059C309.156 74.4211 314.182 75.3676 318.865 77.2882C323.548 79.2088 327.79 82.0641 331.334 85.6778C334.878 89.2916 337.649 93.5885 339.478 98.308C341.307 103.027 342.156 108.069 341.972 113.127ZM301.857 80.1014C289.541 80.1014 280.398 91.8532 280.398 112.38C280.398 129.357 288.049 147.637 304.469 147.637C320.89 147.637 325.926 130.461 325.926 116.108C325.926 100.252 319.579 80.1014 301.857 80.1014Z" fill="white"/>
<path d="M248.332 46.1721C239.068 41.0495 228.524 42.3111 222.416 42.3804L178.965 42.8881L179.106 50.3007L191.703 50.3155C191.733 51.7558 191.756 53.2077 191.772 54.6721C191.804 57.6714 191.804 60.6262 191.772 63.537V131.377C191.772 138.549 191.772 153.244 191.772 153.244H207.999C207.955 137.804 207.912 122.364 207.87 106.921C207.87 106.373 207.87 105.822 207.87 105.272H207.909V99.9545C207.909 85.6914 207.899 71.4277 207.879 57.1646L207.695 49.287H209.759C218.981 49.287 219.502 49.11 221.316 49.1913C226.503 49.3602 231.536 51.0005 235.826 53.9218C238.149 55.5828 240.157 57.6451 241.756 60.0117C244.388 64.2475 245.895 69.0851 246.135 74.0661C245.801 75.8741 246.436 88.2595 237.516 95.1962C232.897 98.782 227.096 99.3398 221.036 100.018C217.78 100.375 214.501 100.448 211.233 100.237V106.094L228.795 106.031C234.189 105.869 239.495 104.615 244.39 102.344C250.276 99.8733 255.327 95.762 258.942 90.5011C261.334 87.212 263.073 83.4954 264.065 79.5513C265.362 73.0363 264.533 66.2766 261.701 60.2677C258.869 54.2588 254.183 49.3179 248.332 46.1721Z" fill="white"/>
<path d="M495.418 76.8695L495.34 80.9437L506.043 80.6215C506.079 81.5014 506.113 82.3841 506.152 83.264V153.233H521.873C521.915 126.989 521.957 100.744 521.999 74.4977L495.418 76.8695Z" fill="white"/>
<path d="M511.257 63.6527C517.183 63.6527 521.988 58.8485 521.988 52.9222C521.988 46.9959 517.183 42.1918 511.257 42.1918C505.33 42.1918 500.526 46.9959 500.526 52.9222C500.526 58.8485 505.33 63.6527 511.257 63.6527Z" fill="white"/>
<path d="M857.577 131.583C857.604 132.324 857.601 133.39 857.713 142.412C857.767 146.706 857.821 151.001 857.848 153.246H840.421V144.841C838.501 146.776 831.025 153.246 811.775 153.246C805.166 153.246 792.188 152.362 785.128 143.979C783.692 142.488 782.565 140.726 781.815 138.797C781.065 136.867 780.706 134.809 780.757 132.739C783.129 107.762 839.161 111.613 839.457 111.617C839.457 111.617 840.204 99.8131 839.785 96.1187C839.062 89.7275 837.779 87.9409 836.805 86.9404C832.912 82.9267 826.34 82.6314 823.977 82.3572C816.748 81.8478 809.484 82.1793 802.331 83.3474C798.655 84.0691 795.063 85.1728 791.615 86.6388C791.571 85.4053 791.526 84.1718 791.48 82.9383C799.565 78.9441 808.275 76.368 817.232 75.3211C828.44 73.9983 841.81 72.0292 850.248 79.9633C854.095 83.6804 856.515 88.63 857.086 93.9485C858.083 103.16 857.641 111.267 857.577 131.583ZM839.496 116.241C833.985 115.235 805.832 114.277 797.211 124.567C795.262 126.467 793.968 128.937 793.516 131.621C793.046 138.271 802.659 143.237 804.19 143.994C820.429 150.084 835.256 145.152 839.448 137.158C839.929 132.664 840.107 128.142 839.984 123.624C839.917 121.051 839.74 118.585 839.511 116.238L839.496 116.241Z" fill="white"/>
<path d="M761.465 153.242C761.539 151.047 761.496 148.849 761.338 146.658C761.233 145.199 761.082 143.81 760.898 142.5V142.324C756.523 144.434 745.759 153.245 732.623 153.245C721.13 153.245 710.549 147.963 710.549 130C710.537 113.887 710.524 97.7729 710.51 81.6576L698.622 81.3015C699.082 79.8049 699.541 78.31 699.999 76.8154L725.147 74.3494V127.18C725.147 139.51 731.893 144.958 740.831 144.958C744.761 144.966 748.617 143.883 751.968 141.832C755.32 139.78 758.036 136.839 759.817 133.336C760.903 130.349 761.337 127.163 761.091 123.994V89.1424C761.053 86.6594 761.014 84.1792 760.973 81.7003L748.528 81.3413C748.93 79.7864 749.331 78.2295 749.733 76.6727C758.017 75.6059 775.679 74.3494 775.679 74.3494V138.627C775.679 143.529 775.607 148.401 775.462 153.245L761.465 153.242Z" fill="white"/>
<path d="M671.473 81.7126L681.219 79.9558C682.731 79.7549 684.276 79.5633 685.851 79.3805C689.319 78.9978 692.676 78.7297 695.9 78.5609V85.5087C688.671 84.7346 681.361 85.3108 674.343 87.2081C675.268 88.9646 676.085 90.7768 676.79 92.633C678.239 96.1332 679.067 99.8586 679.237 103.643C679.237 124.39 661.424 131.631 645.568 131.631C642.756 131.667 639.943 131.538 637.147 131.243C635.35 132.259 633.669 133.464 632.131 134.84C629.656 137.055 627.047 139.438 627.107 142.587C627.15 143.58 627.419 144.551 627.896 145.424C629.547 148.639 633.32 150.884 639.53 152.451C643.933 153.566 650.267 153.987 662.565 153.303C663.641 153.128 676.485 151.263 683.66 159.893C686.745 164.036 688.229 169.156 687.834 174.306C687.834 197.208 665.131 205.237 646.336 205.237C626.956 205.237 610.318 197.403 610.318 179.983V179.79C610.318 170.786 620.694 160.807 631.265 160.807C622.653 160.418 614.824 154.933 614.824 147.104C614.824 140.451 621.085 133.403 630.09 129.682V129.29C622.457 127.139 612.274 119.701 612.274 103.649C612.274 90.7278 621.082 74.4838 646.727 74.4838C654.175 74.3895 661.523 76.2092 668.066 79.7689L671.473 81.7126ZM620.646 174.743C619.296 180.574 623.551 185.742 624.744 187.191C633.29 197.584 649.639 195.812 651.848 195.544C664.064 194.037 678.993 186.019 678.797 176.949C678.592 175.215 678.04 173.539 677.174 172.023C676.308 170.506 675.145 169.18 673.756 168.122C669.582 164.675 665.827 165.557 653.11 165.127C637.244 164.587 633.844 162.901 628.209 166.074C626.42 166.924 624.824 168.13 623.521 169.622C622.218 171.113 621.235 172.857 620.633 174.743H620.646ZM629.123 103.652C629.234 105.541 630.286 119.719 639.302 124.167C641.603 125.269 644.129 125.818 646.68 125.768C649.23 125.718 651.734 125.071 653.99 123.88C662.684 119.107 663.301 105.605 663.379 103.652C663.551 99.3609 663.904 90.617 657.754 85.5396C654.307 83.2209 650.253 81.9681 646.099 81.9391C641.945 81.9102 637.875 83.1058 634.397 85.3762C628.342 90.3874 628.855 99.15 629.123 103.652Z" fill="white"/>
<path d="M605.765 153.242H591.457V103.968C591.364 102.175 590.719 92.9728 584.173 87.6784C577.728 82.4683 567.843 85.1013 564.172 86.0113C561.145 86.7703 558.229 87.9198 555.497 89.4293C555.621 110.701 555.746 131.972 555.871 153.242H541.563C541.563 129.017 541.563 104.791 541.563 80.5659L528.68 80.9013V76.7933L555.223 74.3494L555.16 85.4993C558.353 82.3795 562.084 79.8635 566.174 78.0719C569.742 76.5959 573.492 75.6056 577.324 75.1277C579.714 74.7631 581.543 74.6513 582.595 74.576C584.957 74.4091 587.33 74.5699 589.649 75.0527C592.556 75.4434 595.329 76.5207 597.737 78.1955C607.094 85.2377 605.874 100.97 605.762 102.067L605.765 153.242Z" fill="white"/>
<path d="M491.361 129.027C486.66 146.017 477.623 144.627 477.623 144.627C477.623 144.627 466.172 144.974 460.269 145.055C454.977 145.127 450.065 145.107 445.886 145.098C442.571 145.098 439.777 145.073 437.8 145.058V42.1911L422.838 42.556H421.462V42.5957L409.73 42.8811C409.73 42.8811 409.594 44.6351 409.525 45.509L421.139 45.6032C421.179 46.925 421.218 48.2457 421.256 49.5655L421.033 57.2739V138.362C420.871 142.053 421.404 153.166 421.431 153.166C431.617 153.166 445.283 153.35 487.266 153.166C488.695 153.166 489.885 153.166 490.717 153.166L495.095 128.602L491.361 129.027Z" fill="white"/>
</svg>
